<svg width="131" height="317" viewBox="0 0 131 317" fill="none" xmlns="http://www.w3.org/2000/svg">
<path d="M0 261V131H131C130.995 165.477 117.191 198.54 92.6252 222.918C68.0591 247.297 34.7418 260.995 0 261Z" fill="#8ECCFF"/>
<path d="M0.00971985 0.00970459C0.00971985 0.00970459 60.2049 -1.54298 96.3742 34.6263C132.544 70.7955 130.99 130.99 130.99 130.99C130.99 130.99 70.7956 132.543 34.6262 96.3741C-1.54329 60.2048 0.00971985 0.00970459 0.00971985 0.00970459Z" fill="#2F2EA6"/>
<path d="M131 317C131 299.496 124.099 282.708 111.815 270.331C99.532 257.954 82.8715 251 65.5 251C48.1285 251 31.4682 257.954 19.1845 270.331C6.9009 282.708 0 299.496 0 317H65.5H131Z" fill="#FBEA26"/>
</svg>
