<svg width="259" height="258" viewBox="0 0 259 258" fill="none" xmlns="http://www.w3.org/2000/svg">
<path fill-rule="evenodd" clip-rule="evenodd" d="M62.1024 195.179C27.7587 193.437 0.399521 165.435 0 131H131C130.6 165.435 103.242 193.437 68.8976 195.179C102.789 196.898 129.878 224.19 130.97 258H0.0294189C1.12192 224.19 28.2108 196.898 62.1024 195.179Z" fill="#0C65AF"/>
<path d="M0.00971985 0.00964355C0.00971985 0.00964355 60.2049 -1.54305 96.3742 34.6262C132.544 70.7954 130.99 130.99 130.99 130.99C130.99 130.99 70.7956 132.543 34.6262 96.374C-1.54329 60.2048 0.00971985 0.00964355 0.00971985 0.00964355Z" fill="#2F2EA6"/>
<path d="M131 258V131H259C258.995 164.681 245.508 196.981 221.504 220.797C197.5 244.613 164.946 257.995 131 258Z" fill="#FBEA26"/>
</svg>
